<?xml version="1.0" standalone="no"?>
<!DOCTYPE svg PUBLIC "-//W3C//DTD SVG 20010904//EN"
 "http://www.w3.org/TR/2001/REC-SVG-20010904/DTD/svg10.dtd">
<svg version="1.0" xmlns="http://www.w3.org/2000/svg"
 width="640.000000pt" height="640.000000pt" viewBox="0 0 640.000000 640.000000"
 preserveAspectRatio="xMidYMid meet">

<g transform="translate(0.000000,640.000000) scale(0.100000,-0.100000)"
fill="#000000" stroke="none">
<path d="M0 3200 l0 -3200 3200 0 3200 0 0 3200 0 3200 -3200 0 -3200 0 0
-3200z m2100 -5 c0 -450 -3 -685 -10 -685 -7 0 -10 235 -10 685 0 450 3 685
10 685 7 0 10 -235 10 -685z m-972 288 l-3 -268 -30 -3 c-53 -6 -55 6 -55 285
l0 253 45 0 45 0 -2 -267z m-243 -30 c126 -213 128 -218 115 -244 -12 -22 -54
-26 -70 -6 -6 6 -61 97 -122 201 l-112 189 30 23 c16 13 34 24 39 24 6 0 60
-84 120 -187z m561 166 c19 -11 34 -24 34 -27 -1 -4 -54 -95 -118 -202 -99
-166 -121 -195 -143 -198 -36 -4 -56 22 -42 57 12 32 224 391 231 391 3 0 20
-9 38 -21z m3086 -98 c64 -25 102 -64 118 -119 19 -68 16 -72 -45 -72 -55 0
-55 0 -55 31 0 44 -45 85 -102 94 -25 4 -149 5 -274 3 -208 -3 -233 -5 -276
-25 -54 -25 -70 -49 -71 -112 -2 -79 8 -100 61 -124 42 -19 73 -21 312 -28
200 -5 278 -11 316 -23 94 -30 130 -74 140 -175 15 -139 -38 -222 -168 -263
-68 -21 -90 -23 -318 -23 -264 0 -324 9 -385 57 -33 26 -64 91 -65 136 0 32 0
32 50 32 46 0 50 -2 56 -27 11 -52 23 -72 56 -90 29 -16 61 -18 273 -18 269 0
309 7 362 60 30 30 33 38 33 97 0 72 -14 99 -63 125 -26 14 -77 18 -287 24
-262 8 -338 19 -400 55 -58 34 -73 64 -77 156 -8 155 49 214 237 248 25 5 151
7 280 6 217 -2 239 -4 292 -25z m1104 16 c128 -27 186 -87 200 -210 l7 -58
-54 3 -54 3 -6 53 c-9 68 -28 96 -81 116 -37 15 -84 16 -343 14 -338 -3 -346
-5 -380 -73 -17 -35 -20 -64 -23 -230 -4 -225 6 -297 46 -337 42 -43 109 -50
406 -46 291 4 319 9 356 70 15 26 20 50 20 111 l0 77 -205 0 -205 0 0 45 0 45
261 0 261 0 -4 -128 c-3 -114 -7 -135 -29 -178 -29 -57 -70 -88 -148 -112 -47
-14 -99 -17 -331 -17 -302 0 -358 7 -432 54 -31 20 -53 44 -69 77 -23 47 -24
60 -27 276 -3 185 -1 237 12 282 27 93 79 138 186 162 77 17 555 18 636 1z
m-2266 -413 c129 -222 237 -409 238 -414 2 -6 -21 -10 -55 -10 l-59 0 -51 93
-51 92 -332 0 -333 0 -51 -92 -51 -93 -57 0 c-32 0 -58 3 -58 6 0 4 107 190
238 415 174 299 242 409 257 411 11 2 45 1 75 -1 l55 -3 235 -404z m-2623 170
c138 -97 153 -109 153 -131 0 -17 -29 -43 -48 -43 -13 0 -264 169 -290 194 -4
5 36 76 43 76 3 0 66 -43 142 -96z m852 57 l20 -38 -132 -93 c-137 -97 -174
-113 -196 -86 -27 32 -4 59 136 158 76 53 141 97 145 97 4 1 16 -16 27 -38z
m-428 -216 c137 -47 203 -207 140 -338 -91 -188 -386 -174 -456 22 -69 198
117 384 316 316z m-351 -69 c0 -2 -9 -23 -20 -47 -26 -59 -27 -161 0 -231 11
-28 18 -53 17 -55 -2 -1 -28 17 -58 41 -67 52 -124 127 -155 204 -39 95 -42
92 96 92 66 0 120 -2 120 -4z m775 -28 c-21 -95 -99 -212 -183 -273 -26 -19
-50 -35 -54 -35 -3 0 2 22 12 49 36 94 35 139 -5 269 -7 22 -7 22 115 22 l122
0 -7 -32z"/>
<path d="M2923 3226 c-73 -129 -133 -236 -133 -240 0 -3 122 -6 271 -6 161 0
269 4 267 9 -7 22 -263 470 -268 470 -3 0 -65 -105 -137 -233z"/>
</g>
</svg>
