<?xml version="1.0" encoding="UTF-8"?>
<!DOCTYPE svg PUBLIC "-//W3C//DTD SVG 1.1//EN" "http://www.w3.org/Graphics/SVG/1.1/DTD/svg11.dtd">
<svg xmlns="http://www.w3.org/2000/svg" version="1.1" width="480px" height="480px" style="shape-rendering:geometricPrecision; text-rendering:geometricPrecision; image-rendering:optimizeQuality; fill-rule:evenodd; clip-rule:evenodd" xmlns:xlink="http://www.w3.org/1999/xlink">
<g><path style="opacity:0.004" fill="#000000" d="M 244.5,-0.5 C 275.5,-0.5 306.5,-0.5 337.5,-0.5C 335.708,0.309116 333.708,0.809116 331.5,1C 304.833,1.66667 278.167,1.66667 251.5,1C 248.964,0.813823 246.631,0.313823 244.5,-0.5 Z"/></g>
<g><path style="opacity:0.004" fill="#000000" d="M 155.5,186.5 C 155.897,185.475 156.563,185.308 157.5,186C 156.906,186.464 156.239,186.631 155.5,186.5 Z"/></g>
<g><path style="opacity:0.015" fill="#060606" d="M 157.5,187.5 C 158.664,222.331 158.831,257.331 158,292.5C 156.421,293.8 155.255,293.466 154.5,291.5C 154.833,291.5 155.167,291.5 155.5,291.5C 157.493,257.516 158.16,223.183 157.5,188.5C 157.5,188.167 157.5,187.833 157.5,187.5 Z"/></g>
<g><path style="opacity:0.004" fill="#000000" d="M 152.5,188.5 C 153.664,222.331 153.831,256.331 153,290.5C 152.5,256.502 152.333,222.502 152.5,188.5 Z"/></g>
<g><path style="opacity:0.004" fill="#000000" d="M 159.5,188.5 C 160.664,222.331 160.831,256.331 160,290.5C 159.5,256.502 159.333,222.502 159.5,188.5 Z"/></g>
<g><path style="opacity:0.2" fill="#3b4040" d="M 157.5,187.5 C 157.5,187.833 157.5,188.167 157.5,188.5C 155.507,222.484 154.84,256.817 155.5,291.5C 155.167,291.5 154.833,291.5 154.5,291.5C 154.5,256.833 154.5,222.167 154.5,187.5C 155.5,187.5 156.5,187.5 157.5,187.5 Z"/></g>
<g><path style="opacity:0.514" fill="#b6b6b8" d="M 157.5,188.5 C 158.16,223.183 157.493,257.516 155.5,291.5C 154.84,256.817 155.507,222.484 157.5,188.5 Z"/></g>
<g><path style="opacity:0.004" fill="#000000" d="M 88.5,229.5 C 87.3417,219.675 87.1751,209.675 88,199.5C 88.4998,209.494 88.6665,219.494 88.5,229.5 Z"/></g>
<g><path style="opacity:0.004" fill="#000000" d="M 54.5,204.5 C 55.6009,203.402 56.9343,203.235 58.5,204C 57.2068,204.49 55.8734,204.657 54.5,204.5 Z"/></g>
<g><path style="opacity:0.004" fill="#000000" d="M 104.5,204.5 C 105.251,203.427 106.251,203.26 107.5,204C 106.552,204.483 105.552,204.649 104.5,204.5 Z"/></g>
<g><path style="opacity:0.968" fill="#ebecec" d="M 75.5,235.5 C 75.5,236.5 75.5,237.5 75.5,238.5C 72.994,241.086 70.494,241.086 68,238.5C 64.3107,231.106 60.1441,224.106 55.5,217.5C 54.3192,214.975 52.9858,212.475 51.5,210C 53.3687,208.398 55.3687,207.398 57.5,207C 63.7583,216.407 69.7583,225.907 75.5,235.5 Z"/></g>
<g><path style="opacity:0.004" fill="#000000" d="M 48.5,209.5 C 49.8333,210.167 49.8333,210.167 48.5,209.5 Z"/></g>
<g><path style="opacity:0.004" fill="#000000" d="M 112.5,209.5 C 113.525,209.897 113.692,210.563 113,211.5C 112.536,210.906 112.369,210.239 112.5,209.5 Z"/></g>
<g><path style="opacity:0.004" fill="#000000" d="M 305.5,210.5 C 311.987,209.346 318.654,209.179 325.5,210C 318.842,210.5 312.175,210.666 305.5,210.5 Z"/></g>
<g><path style="opacity:0.004" fill="#000000" d="M 381.5,210.5 C 392.326,209.341 403.326,209.174 414.5,210C 403.505,210.5 392.505,210.667 381.5,210.5 Z"/></g>
<g><path style="opacity:0.004" fill="#000000" d="M 224.5,211.5 C 227.304,210.362 230.304,210.195 233.5,211C 230.518,211.498 227.518,211.665 224.5,211.5 Z"/></g>
<g><path style="opacity:0.004" fill="#000000" d="M 377.5,211.5 C 375.801,211.66 374.134,211.494 372.5,211C 374.387,210.22 376.054,210.387 377.5,211.5 Z"/></g>
<g><path style="opacity:0.101" fill="#282828" d="M 426.5,214.5 C 407.827,213.18 389.16,213.18 370.5,214.5C 370.082,213.778 369.416,213.278 368.5,213C 371.695,212.819 374.695,212.319 377.5,211.5C 393.197,211.568 408.864,211.401 424.5,211C 422.833,211.333 421.167,211.667 419.5,212C 422.833,212.333 426.167,212.667 429.5,213C 428.263,213.232 427.263,213.732 426.5,214.5 Z"/></g>
<g><path style="opacity:0.977" fill="#f2f2f2" d="M 348.5,222.5 C 348.5,224.833 348.5,227.167 348.5,229.5C 346.167,229.5 343.833,229.5 341.5,229.5C 341.784,226.143 340.451,223.809 337.5,222.5C 335.723,221.4 333.723,220.566 331.5,220C 318.785,219.103 306.118,219.436 293.5,221C 286.947,223.73 284.78,228.563 287,235.5C 288.728,238.953 291.562,240.786 295.5,241C 306.833,241.333 318.167,241.667 329.5,242C 347.795,243.8 353.295,253.3 346,270.5C 341.723,274.711 336.556,277.211 330.5,278C 315.74,279.038 301.073,278.538 286.5,276.5C 284.229,274.734 282.063,272.734 280,270.5C 278.711,267.649 278.211,264.649 278.5,261.5C 281.167,261.5 283.833,261.5 286.5,261.5C 286.054,264.01 286.72,266.01 288.5,267.5C 289.36,269.614 291.027,270.78 293.5,271C 306.538,271.853 319.538,271.52 332.5,270C 336.02,269.496 338.52,267.663 340,264.5C 342.971,255.886 340.138,250.719 331.5,249C 320.167,248.667 308.833,248.333 297.5,248C 279.52,246.549 273.853,237.382 280.5,220.5C 283.614,218.035 286.947,216.035 290.5,214.5C 305.146,213.419 319.812,213.253 334.5,214C 340.359,215.086 345.025,217.92 348.5,222.5 Z"/></g>
<g><path style="opacity:0.975" fill="#f0f0f0" d="M 426.5,214.5 C 434.841,218.51 438.508,225.176 437.5,234.5C 434.833,234.5 432.167,234.5 429.5,234.5C 429.664,231.813 429.497,229.146 429,226.5C 428.617,225.944 428.117,225.611 427.5,225.5C 427.5,223.5 426.5,222.5 424.5,222.5C 424.389,221.883 424.056,221.383 423.5,221C 408.533,219.478 393.533,219.145 378.5,220C 374.114,219.848 371.114,221.681 369.5,225.5C 368.883,225.611 368.383,225.944 368,226.5C 367.333,239.167 367.333,251.833 368,264.5C 368.846,266.847 370.346,268.68 372.5,270C 387.445,271.6 402.445,271.934 417.5,271C 420.289,270.759 422.956,270.092 425.5,269C 426.823,268.184 427.489,267.017 427.5,265.5C 429.177,261.455 429.844,257.122 429.5,252.5C 418.833,252.5 408.167,252.5 397.5,252.5C 397.5,250.167 397.5,247.833 397.5,245.5C 410.833,245.5 424.167,245.5 437.5,245.5C 437.666,251.842 437.5,258.175 437,264.5C 436.361,267.112 435.194,269.446 433.5,271.5C 433.624,272.107 433.957,272.44 434.5,272.5C 434.672,273.492 434.338,274.158 433.5,274.5C 433.5,273.833 433.167,273.5 432.5,273.5C 430.326,273.75 428.659,274.75 427.5,276.5C 408.173,279.132 388.839,279.132 369.5,276.5C 365.058,273.553 361.892,269.553 360,264.5C 359.333,251.833 359.333,239.167 360,226.5C 360.608,224.846 361.108,223.179 361.5,221.5C 364.238,218.754 367.238,216.42 370.5,214.5C 389.16,213.18 407.827,213.18 426.5,214.5 Z"/></g>
<g><path style="opacity:0.063" fill="#2f3031" d="M 348.5,222.5 C 345.025,217.92 340.359,215.086 334.5,214C 319.812,213.253 305.146,213.419 290.5,214.5C 289.737,213.732 288.737,213.232 287.5,213C 291.167,212.667 294.833,212.333 298.5,212C 296.833,211.667 295.167,211.333 293.5,211C 294.5,210.833 295.5,210.667 296.5,210.5C 308.998,211.823 321.498,211.823 334,210.5C 335.167,210.667 336.333,210.833 337.5,211C 335.5,211.333 333.5,211.667 331.5,212C 334.833,212.333 338.167,212.667 341.5,213C 340.833,213.333 340.167,213.667 339.5,214C 341.878,214.511 344.212,215.178 346.5,216C 346.167,216.333 345.833,216.667 345.5,217C 347.671,218.174 348.671,220.007 348.5,222.5 Z"/></g>
<g><path style="opacity:0.004" fill="#000000" d="M 52.5,215.5 C 51.8333,216.167 51.8333,216.167 52.5,215.5 Z"/></g>
<g><path style="opacity:0.982" fill="#f2f2f3" d="M 240.5,223.5 C 241.742,227.655 243.742,231.322 246.5,234.5C 248.749,240.005 251.749,245.005 255.5,249.5C 257,253.173 259,256.506 261.5,259.5C 264.22,265.271 267.22,270.938 270.5,276.5C 267.554,277.655 264.554,277.821 261.5,277C 260.934,276.005 260.267,275.172 259.5,274.5C 258.163,270.327 256.163,266.494 253.5,263C 237.167,262.333 220.833,262.333 204.5,263C 201.837,266.494 199.837,270.327 198.5,274.5C 195.416,277.081 191.75,278.081 187.5,277.5C 188.242,275.02 189.242,272.687 190.5,270.5C 193.258,267.322 195.258,263.655 196.5,259.5C 199.502,256.839 201.502,253.505 202.5,249.5C 203.89,248.101 204.89,246.434 205.5,244.5C 210.255,237.996 214.255,230.996 217.5,223.5C 219.601,220.821 221.601,217.988 223.5,215C 227.167,214.333 230.833,214.333 234.5,215C 235.975,218.291 237.975,221.125 240.5,223.5 Z M 228.5,224.5 C 230.042,225.045 230.875,226.711 231,229.5C 232.087,227.068 232.587,227.402 232.5,230.5C 233.268,231.263 233.768,232.263 234,233.5C 234.383,232.944 234.883,232.611 235.5,232.5C 235.5,233.5 235.5,234.5 235.5,235.5C 236.062,238.051 237.062,239.718 238.5,240.5C 240.953,244.524 242.953,248.19 244.5,251.5C 239.412,252.143 234.246,252.476 229,252.5C 223.784,252.494 218.951,251.827 214.5,250.5C 215.469,248.337 216.302,246.004 217,243.5C 217.333,243.833 217.667,244.167 218,244.5C 218.662,242.187 219.162,239.854 219.5,237.5C 220.222,237.918 220.722,238.584 221,239.5C 221.662,237.187 222.162,234.854 222.5,232.5C 223.222,232.918 223.722,233.584 224,234.5C 224.21,232.942 224.71,231.609 225.5,230.5C 226.772,229.268 227.772,227.268 228.5,224.5 Z"/></g>
<g><path style="opacity:0.267" fill="#2b2a2d" d="M 370.5,214.5 C 367.238,216.42 364.238,218.754 361.5,221.5C 361.624,219.418 362.624,217.918 364.5,217C 364.167,216.667 363.833,216.333 363.5,216C 365.74,215.023 368.073,214.523 370.5,214.5 Z"/></g>
<g><path style="opacity:0.02" fill="#2f2f31" d="M 290.5,214.5 C 286.947,216.035 283.614,218.035 280.5,220.5C 280.5,219.833 280.167,219.5 279.5,219.5C 282.294,216.067 285.961,214.4 290.5,214.5 Z"/></g>
<g><path style="opacity:0.31" fill="#303034" d="M 240.5,223.5 C 237.975,221.125 235.975,218.291 234.5,215C 230.833,214.333 227.167,214.333 223.5,215C 221.601,217.988 219.601,220.821 217.5,223.5C 217.838,221.146 218.338,218.813 219,216.5C 219.333,216.833 219.667,217.167 220,217.5C 221.304,213.053 224.304,211.387 229,212.5C 233.744,211.379 236.744,213.046 238,217.5C 238.333,217.167 238.667,216.833 239,216.5C 239.662,218.813 240.162,221.146 240.5,223.5 Z"/></g>
<g><path style="opacity:0.004" fill="#000000" d="M 55.5,220.5 C 54.8333,221.167 54.8333,221.167 55.5,220.5 Z"/></g>
<g><path style="opacity:0.017" fill="#212121" d="M 424.5,222.5 C 426.5,222.5 427.5,223.5 427.5,225.5C 426.71,226.609 426.21,227.942 426,229.5C 425.506,227.866 425.34,226.199 425.5,224.5C 423.857,224.52 422.524,223.853 421.5,222.5C 405.157,223.636 388.824,223.803 372.5,223C 374.932,224.087 374.598,224.587 371.5,224.5C 371.66,226.199 371.494,227.866 371,229.5C 370.79,227.942 370.29,226.609 369.5,225.5C 371.114,221.681 374.114,219.848 378.5,220C 393.533,219.145 408.533,219.478 423.5,221C 424.056,221.383 424.389,221.883 424.5,222.5 Z"/></g>
<g><path style="opacity:0.004" fill="#000000" d="M 277.5,222.5 C 276.833,221.167 276.833,221.167 277.5,222.5 Z"/></g>
<g><path style="opacity:0.263" fill="#252626" d="M 75.5,235.5 C 69.7583,225.907 63.7583,216.407 57.5,207C 55.3687,207.398 53.3687,208.398 51.5,210C 52.9858,212.475 54.3192,214.975 55.5,217.5C 54.7784,217.918 54.2784,218.584 54,219.5C 53.79,217.942 53.29,216.609 52.5,215.5C 52.6068,213.621 52.1068,213.288 51,214.5C 49.232,206.965 52.0654,204.299 59.5,206.5C 60,207.5 60.5,208.5 61,209.5C 61.3333,209.167 61.6667,208.833 62,208.5C 62.7802,212.696 64.2802,215.696 66.5,217.5C 67.9379,218.282 68.9379,219.949 69.5,222.5C 71.2126,223.816 72.3793,226.15 73,229.5C 73.3333,229.167 73.6667,228.833 74,228.5C 74.3333,218.5 74.6667,208.5 75,198.5C 75.4999,210.829 75.6665,223.162 75.5,235.5 Z"/></g>
<g><path style="opacity:0.004" fill="#000000" d="M 66.5,216.5 C 67.8333,217.167 67.8333,217.167 66.5,216.5 Z"/></g>
<g><path style="opacity:0.004" fill="#000000" d="M 116.5,223.5 C 115.761,223.631 115.094,223.464 114.5,223C 115.437,222.308 116.103,222.475 116.5,223.5 Z"/></g>
<g><path style="opacity:0.098" fill="#282828" d="M 235.5,232.5 C 234.883,232.611 234.383,232.944 234,233.5C 233.768,232.263 233.268,231.263 232.5,230.5C 232.587,227.402 232.087,227.068 231,229.5C 230.875,226.711 230.042,225.045 228.5,224.5C 227.772,227.268 226.772,229.268 225.5,230.5C 224.71,231.609 224.21,232.942 224,234.5C 223.722,233.584 223.222,232.918 222.5,232.5C 224.007,228.155 226.173,224.155 229,220.5C 231.827,224.155 233.993,228.155 235.5,232.5 Z"/></g>
<g><path style="opacity:0.004" fill="#000000" d="M 438.5,224.5 C 438.369,223.761 438.536,223.094 439,222.5C 439.692,223.437 439.525,224.103 438.5,224.5 Z"/></g>
<g><path style="opacity:0.004" fill="#000000" d="M 358.5,225.5 C 357.475,225.103 357.308,224.437 358,223.5C 358.464,224.094 358.631,224.761 358.5,225.5 Z"/></g>
<g><path style="opacity:0.004" fill="#000000" d="M 214.5,225.5 C 213.833,224.167 213.833,224.167 214.5,225.5 Z"/></g>
<g><path style="opacity:0.004" fill="#000000" d="M 243.5,224.5 C 244.833,225.167 244.833,225.167 243.5,224.5 Z"/></g>
<g><path style="opacity:0.004" fill="#000000" d="M 275.5,224.5 C 276.648,228.981 276.815,233.648 276,238.5C 275.501,233.845 275.334,229.179 275.5,224.5 Z"/></g>
<g><path style="opacity:0.004" fill="#000000" d="M 351.5,225.5 C 352.598,226.601 352.765,227.934 352,229.5C 351.51,228.207 351.343,226.873 351.5,225.5 Z"/></g>
<g><path style="opacity:0.125" fill="#242425" d="M 426.5,214.5 C 431.321,214.035 434.487,216.035 436,220.5C 436.333,220.167 436.667,219.833 437,219.5C 437.198,221.382 437.698,223.048 438.5,224.5C 438.665,228.182 438.499,231.848 438,235.5C 436.769,236.108 435.436,236.441 434,236.5C 431.992,236.693 430.492,236.026 429.5,234.5C 432.167,234.5 434.833,234.5 437.5,234.5C 438.508,225.176 434.841,218.51 426.5,214.5 Z"/></g>
<g><path style="opacity:0.004" fill="#000000" d="M 439.5,226.5 C 440.629,228.628 440.796,230.961 440,233.5C 439.503,231.19 439.337,228.857 439.5,226.5 Z"/></g>
<g><path style="opacity:0.004" fill="#000000" d="M 39.5,228.5 C 39.6495,229.552 39.4828,230.552 39,231.5C 38.2599,230.251 38.4265,229.251 39.5,228.5 Z"/></g>
<g><path style="opacity:0.729" fill="#535355" d="M 337.5,222.5 C 340.451,223.809 341.784,226.143 341.5,229.5C 343.833,229.5 346.167,229.5 348.5,229.5C 348.5,227.167 348.5,224.833 348.5,222.5C 349.222,222.082 349.722,221.416 350,220.5C 352.997,231.181 349.664,234.181 340,229.5C 339.667,229.833 339.333,230.167 339,230.5C 338.667,228.5 338.333,226.5 338,224.5C 336.927,225.28 335.76,225.113 334.5,224C 335.737,223.768 336.737,223.268 337.5,222.5 Z"/></g>
<g><path style="opacity:0.004" fill="#000000" d="M 246.5,230.5 C 247.833,231.167 247.833,231.167 246.5,230.5 Z"/></g>
<g><path style="opacity:0.31" fill="#28272b" d="M 243.5,225.5 C 244.772,226.732 245.772,228.732 246.5,231.5C 246.5,232.5 246.5,233.5 246.5,234.5C 243.742,231.322 241.742,227.655 240.5,223.5C 241.117,223.389 241.617,223.056 242,222.5C 242.232,223.737 242.732,224.737 243.5,225.5 Z"/></g>
<g><path style="opacity:0.141" fill="#202024" d="M 427.5,225.5 C 428.117,225.611 428.617,225.944 429,226.5C 429.497,229.146 429.664,231.813 429.5,234.5C 427.612,232.012 426.945,229.012 427.5,225.5 Z"/></g>
<g><path style="opacity:0.004" fill="#000000" d="M 341.5,233.5 C 343.966,232.366 346.633,232.199 349.5,233C 346.854,233.497 344.187,233.664 341.5,233.5 Z"/></g>
<g><path style="opacity:0.004" fill="#000000" d="M 369.5,232.5 C 370.833,241.167 370.833,249.833 369.5,258.5C 369.5,249.833 369.5,241.167 369.5,232.5 Z"/></g>
<g><path style="opacity:0.073" fill="#2b2c2b" d="M 222.5,232.5 C 222.162,234.854 221.662,237.187 221,239.5C 220.722,238.584 220.222,237.918 219.5,237.5C 219.75,235.326 220.75,233.659 222.5,232.5 Z"/></g>
<g><path style="opacity:0.004" fill="#000000" d="M 294.5,238.5 C 298.981,237.352 303.648,237.185 308.5,238C 303.845,238.499 299.179,238.666 294.5,238.5 Z"/></g>
<g><path style="opacity:0.004" fill="#000000" d="M 311.5,238.5 C 314.976,237.357 318.642,237.19 322.5,238C 318.848,238.499 315.182,238.665 311.5,238.5 Z"/></g>
<g><path style="opacity:0.004" fill="#000000" d="M 51.5,240.5 C 50.8333,241.167 50.8333,241.167 51.5,240.5 Z"/></g>
<g><path style="opacity:0.137" fill="#2a2a2b" d="M 88.5,229.5 C 89.0621,226.949 90.0621,225.282 91.5,224.5C 92.29,223.391 92.79,222.058 93,220.5C 93.2784,221.416 93.7784,222.082 94.5,222.5C 92.0353,227.263 89.702,232.096 87.5,237C 87.7666,240.164 89.4333,241.164 92.5,240C 98.6255,230.25 104.626,220.417 110.5,210.5C 109.055,208.937 107.389,207.604 105.5,206.5C 102.579,210.019 99.9127,213.686 97.5,217.5C 97.5,216.5 97.5,215.5 97.5,214.5C 98.0621,211.949 99.0621,210.282 100.5,209.5C 102.39,205.642 105.39,204.642 109.5,206.5C 111.921,209.642 112.088,212.975 110,216.5C 109.667,216.167 109.333,215.833 109,215.5C 108.333,217.5 107.667,219.5 107,221.5C 106.667,221.167 106.333,220.833 106,220.5C 103.539,224.739 101.372,229.072 99.5,233.5C 102.911,232.277 106.244,230.777 109.5,229C 109.167,228.667 108.833,228.333 108.5,228C 111.818,226.75 114.485,225.25 116.5,223.5C 119.188,224.024 120.688,225.691 121,228.5C 121.333,228.167 121.667,227.833 122,227.5C 122.667,229.5 122.667,231.5 122,233.5C 121.667,233.167 121.333,232.833 121,232.5C 120.228,233.849 119.061,234.682 117.5,235C 117.833,235.333 118.167,235.667 118.5,236C 115.244,237.777 111.911,239.277 108.5,240.5C 108.611,241.117 108.944,241.617 109.5,242C 108.167,242.667 107.167,243.667 106.5,245C 110.833,245.333 115.167,245.667 119.5,246C 111.5,246.333 103.5,246.667 95.5,247C 103.827,247.5 112.16,247.666 120.5,247.5C 120.5,249.833 120.5,252.167 120.5,254.5C 119.691,256.292 119.191,258.292 119,260.5C 118.722,259.584 118.222,258.918 117.5,258.5C 118.461,255.574 119.127,252.574 119.5,249.5C 113.463,249.171 107.463,249.504 101.5,250.5C 105.706,258.463 105.373,266.13 100.5,273.5C 100.795,271.265 100.461,269.265 99.5,267.5C 99.5,263.5 99.5,259.5 99.5,255.5C 93.6317,244.24 84.6317,240.74 72.5,245C 62.3763,251.494 59.7097,260.328 64.5,271.5C 63.2719,272.306 62.2719,273.306 61.5,274.5C 60.8902,273.609 60.5569,272.609 60.5,271.5C 60.5,271.167 60.5,270.833 60.5,270.5C 61.4889,265.025 61.8222,259.358 61.5,253.5C 61.8333,252.167 62.1667,250.833 62.5,249.5C 62.8333,249.5 63.1667,249.5 63.5,249.5C 63.8333,250.833 64.1667,250.833 64.5,249.5C 64.8333,248.833 65.1667,248.167 65.5,247.5C 58.011,246.671 50.3443,246.171 42.5,246C 47.1667,245.667 51.8333,245.333 56.5,245C 57.7119,243.893 57.3786,243.393 55.5,243.5C 54.205,242.512 52.8717,241.512 51.5,240.5C 46.1052,237.772 42.1052,233.772 39.5,228.5C 39.3932,226.621 39.8932,226.288 41,227.5C 41.6797,225.487 43.013,224.154 45,223.5C 50.9759,227.172 56.4759,230.506 61.5,233.5C 61.8333,233.167 62.1667,232.833 62.5,232.5C 61.9017,231.205 61.4017,229.872 61,228.5C 60.6667,228.833 60.3333,229.167 60,229.5C 59.79,227.942 59.29,226.609 58.5,225.5C 57.0621,224.718 56.0621,223.051 55.5,220.5C 55.5,219.5 55.5,218.5 55.5,217.5C 60.1441,224.106 64.3107,231.106 68,238.5C 70.494,241.086 72.994,241.086 75.5,238.5C 75.5,237.5 75.5,236.5 75.5,235.5C 76.4955,222.677 76.8288,209.677 76.5,196.5C 79.7766,196.216 82.9433,196.549 86,197.5C 86.1675,208.848 86.6675,220.181 87.5,231.5C 88.2975,231.043 88.6309,230.376 88.5,229.5 Z M 75.5,238.5 C 78.1888,240.11 81.1888,240.943 84.5,241C 81.854,241.497 79.1873,241.664 76.5,241.5C 75.8902,240.609 75.5569,239.609 75.5,238.5 Z M 99.5,233.5 C 100.463,234.363 100.463,235.03 99.5,235.5C 98.2267,234.743 98.2267,234.077 99.5,233.5 Z M 63.5,233.5 C 64.7733,234.077 64.7733,234.743 63.5,235.5C 62.537,235.03 62.537,234.363 63.5,233.5 Z M 71.5,242.5 C 71.5,242.833 71.5,243.167 71.5,243.5C 70.6136,244.776 69.6136,244.776 68.5,243.5C 69.3937,243.483 70.3937,243.149 71.5,242.5 Z M 91.5,242.5 C 92.7733,243.077 92.7733,243.743 91.5,244.5C 90.537,244.03 90.537,243.363 91.5,242.5 Z"/></g>
<g><path style="opacity:0.969" fill="#f0f0f0" d="M 108.5,240.5 C 105.564,242.552 102.397,244.219 99,245.5C 95.8358,245.233 94.8358,243.567 96,240.5C 103.029,235.305 110.195,230.305 117.5,225.5C 119.211,227.24 120.044,229.24 120,231.5C 116.188,234.64 112.355,237.64 108.5,240.5 Z"/></g>
<g><path style="opacity:0.004" fill="#000000" d="M 58.5,225.5 C 57.8333,226.167 57.8333,226.167 58.5,225.5 Z"/></g>
<g><path style="opacity:0.962" fill="#f2f2f2" d="M 43.5,225.5 C 51.0706,229.629 58.404,234.295 65.5,239.5C 67.1759,245.445 65.1759,246.945 59.5,244C 53.6176,239.276 47.6176,234.776 41.5,230.5C 42.4565,228.925 43.1231,227.258 43.5,225.5 Z"/></g>
<g><path style="opacity:0.004" fill="#000000" d="M 91.5,224.5 C 90.8333,223.167 90.8333,223.167 91.5,224.5 Z"/></g>
<g><path style="opacity:0.004" fill="#000000" d="M 69.5,221.5 C 70.8333,222.167 70.8333,222.167 69.5,221.5 Z"/></g>
<g><path style="opacity:0.127" fill="#1b1c1d" d="M 97.5,217.5 C 96.8897,219.434 95.8897,221.101 94.5,222.5C 94.5,221.5 94.5,220.5 94.5,219.5C 95.29,218.391 95.79,217.058 96,215.5C 96.2784,216.416 96.7784,217.082 97.5,217.5 Z"/></g>
<g><path style="opacity:0.004" fill="#000000" d="M 94.5,219.5 C 93.8333,218.167 93.8333,218.167 94.5,219.5 Z"/></g>
<g><path style="opacity:0.004" fill="#000000" d="M 97.5,214.5 C 96.8333,213.167 96.8333,213.167 97.5,214.5 Z"/></g>
<g><path style="opacity:0.004" fill="#000000" d="M 100.5,209.5 C 99.8333,208.167 99.8333,208.167 100.5,209.5 Z"/></g>
<g><path style="opacity:0.972" fill="#f0f0f0" d="M 94.5,222.5 C 95.8897,221.101 96.8897,219.434 97.5,217.5C 99.9127,213.686 102.579,210.019 105.5,206.5C 107.389,207.604 109.055,208.937 110.5,210.5C 104.626,220.417 98.6255,230.25 92.5,240C 89.4333,241.164 87.7666,240.164 87.5,237C 89.702,232.096 92.0353,227.263 94.5,222.5 Z"/></g>
<g><path style="opacity:0.981" fill="#f3f3f3" d="M 77.5,198.5 C 79.8333,198.5 82.1667,198.5 84.5,198.5C 84.6666,211.504 84.4999,224.504 84,237.5C 82,238.833 80,238.833 78,237.5C 77.5001,224.504 77.3334,211.504 77.5,198.5 Z"/></g>
<g><path style="opacity:0.004" fill="#000000" d="M 205.5,241.5 C 204.833,240.167 204.833,240.167 205.5,241.5 Z"/></g>
<g><path style="opacity:0.094" fill="#2c2e2f" d="M 217.5,223.5 C 214.255,230.996 210.255,237.996 205.5,244.5C 205.5,243.5 205.5,242.5 205.5,241.5C 206.29,240.391 206.79,239.058 207,237.5C 207.333,237.833 207.667,238.167 208,238.5C 208.822,236.212 209.489,233.878 210,231.5C 210.333,232.167 210.667,232.833 211,233.5C 212.044,231.285 212.71,228.952 213,226.5C 214.087,228.932 214.587,228.598 214.5,225.5C 215.29,224.391 215.79,223.058 216,221.5C 216.278,222.416 216.778,223.082 217.5,223.5 Z"/></g>
<g><path style="opacity:0.004" fill="#000000" d="M 252.5,240.5 C 253.833,241.167 253.833,241.167 252.5,240.5 Z"/></g>
<g><path style="opacity:0.004" fill="#000000" d="M 339.5,241.5 C 339.897,240.475 340.563,240.308 341.5,241C 340.906,241.464 340.239,241.631 339.5,241.5 Z"/></g>
<g><path style="opacity:0.005" fill="#fefffe" d="M 74.5,241.5 C 74.5,241.833 74.5,242.167 74.5,242.5C 73.609,243.11 72.609,243.443 71.5,243.5C 71.5,243.167 71.5,242.833 71.5,242.5C 72.391,241.89 73.391,241.557 74.5,241.5 Z"/></g>
<g><path style="opacity:0.004" fill="#000000" d="M 398.5,243.5 C 411.327,242.34 424.327,242.173 437.5,243C 424.504,243.5 411.504,243.667 398.5,243.5 Z"/></g>
<g><path style="opacity:0.004" fill="#000000" d="M 55.5,243.5 C 54.8333,244.167 54.8333,244.167 55.5,243.5 Z"/></g>
<g><path style="opacity:0.247" fill="#2f2d30" d="M 252.5,241.5 C 253.938,242.282 254.938,243.949 255.5,246.5C 255.5,247.5 255.5,248.5 255.5,249.5C 251.749,245.005 248.749,240.005 246.5,234.5C 247.222,234.082 247.722,233.416 248,232.5C 248.78,236.696 250.28,239.696 252.5,241.5 Z"/></g>
<g><path style="opacity:0.99" fill="#f9f9f9" d="M 99.5,255.5 C 99.5,259.5 99.5,263.5 99.5,267.5C 98.0242,269.769 96.5242,272.102 95,274.5C 92.5205,276.314 90.0205,277.981 87.5,279.5C 83.1667,280.833 78.8333,280.833 74.5,279.5C 70.9026,277.244 67.5693,274.577 64.5,271.5C 59.7097,260.328 62.3763,251.494 72.5,245C 84.6317,240.74 93.6317,244.24 99.5,255.5 Z"/></g>
<g><path style="opacity:0.004" fill="#000000" d="M 202.5,246.5 C 201.833,245.167 201.833,245.167 202.5,246.5 Z"/></g>
<g><path style="opacity:0.127" fill="#1b1b1d" d="M 205.5,244.5 C 204.89,246.434 203.89,248.101 202.5,249.5C 202.5,248.5 202.5,247.5 202.5,246.5C 203.29,245.391 203.79,244.058 204,242.5C 204.278,243.416 204.778,244.082 205.5,244.5 Z"/></g>
<g><path style="opacity:0.004" fill="#000000" d="M 255.5,245.5 C 256.833,246.167 256.833,246.167 255.5,245.5 Z"/></g>
<g><path style="opacity:0.004" fill="#000000" d="M 439.5,245.5 C 440.653,251.653 440.82,257.986 440,264.5C 439.5,258.175 439.334,251.842 439.5,245.5 Z"/></g>
<g><path style="opacity:0.004" fill="#b8b8b8" d="M 395.5,245.5 C 396.629,247.628 396.796,249.961 396,252.5C 395.503,250.19 395.337,247.857 395.5,245.5 Z"/></g>
<g><path style="opacity:0.011" fill="#262626" d="M 65.5,247.5 C 65.1667,248.167 64.8333,248.833 64.5,249.5C 64.1667,249.5 63.8333,249.5 63.5,249.5C 63.1667,248.167 62.8333,248.167 62.5,249.5C 62.1667,250.833 61.8333,252.167 61.5,253.5C 60.5111,258.975 60.1778,264.642 60.5,270.5C 60.5,270.833 60.5,271.167 60.5,271.5C 57.8661,264.607 57.8661,257.607 60.5,250.5C 61.0431,250.44 61.3764,250.107 61.5,249.5C 55.2015,248.504 48.8682,248.17 42.5,248.5C 42.7678,250.099 42.4345,251.432 41.5,252.5C 41.5,250.833 41.5,249.167 41.5,247.5C 49.5,247.5 57.5,247.5 65.5,247.5 Z"/></g>
<g><path style="opacity:0.004" fill="#000000" d="M 39.5,248.5 C 40.5983,249.601 40.765,250.934 40,252.5C 39.51,251.207 39.3433,249.873 39.5,248.5 Z"/></g>
<g><path style="opacity:0.569" fill="#706c72" d="M 60.5,250.5 C 55.0247,249.511 49.358,249.178 43.5,249.5C 43.5,251.167 43.5,252.833 43.5,254.5C 42.7321,255.263 42.2321,256.263 42,257.5C 41.5065,255.866 41.3398,254.199 41.5,252.5C 42.4345,251.432 42.7678,250.099 42.5,248.5C 48.8682,248.17 55.2015,248.504 61.5,249.5C 61.3764,250.107 61.0431,250.44 60.5,250.5 Z"/></g>
<g><path style="opacity:0.004" fill="#000000" d="M 121.5,248.5 C 122.598,249.601 122.765,250.934 122,252.5C 121.51,251.207 121.343,249.873 121.5,248.5 Z"/></g>
<g><path style="opacity:0.973" fill="#f2f2f2" d="M 60.5,250.5 C 57.8661,257.607 57.8661,264.607 60.5,271.5C 60.5569,272.609 60.8902,273.609 61.5,274.5C 58.0127,273.255 55.0127,271.255 52.5,268.5C 51.8333,267.167 50.8333,266.167 49.5,265.5C 49.2624,263.596 48.2624,262.262 46.5,261.5C 46.0652,258.843 45.0652,256.509 43.5,254.5C 43.5,252.833 43.5,251.167 43.5,249.5C 49.358,249.178 55.0247,249.511 60.5,250.5 Z"/></g>
<g><path style="opacity:0.969" fill="#f4f4f4" d="M 117.5,258.5 C 115.255,261.32 113.255,264.32 111.5,267.5C 108.12,270.279 104.62,272.946 101,275.5C 100.536,274.906 100.369,274.239 100.5,273.5C 105.373,266.13 105.706,258.463 101.5,250.5C 107.463,249.504 113.463,249.171 119.5,249.5C 119.127,252.574 118.461,255.574 117.5,258.5 Z"/></g>
<g><path style="opacity:0.004" fill="#000000" d="M 293.5,249.5 C 292.399,250.598 291.066,250.765 289.5,250C 290.793,249.51 292.127,249.343 293.5,249.5 Z"/></g>
<g><path style="opacity:0.004" fill="#000000" d="M 199.5,251.5 C 198.833,250.167 198.833,250.167 199.5,251.5 Z"/></g>
<g><path style="opacity:0.004" fill="#171717" d="M 235.5,232.5 C 240.255,239.004 244.255,246.004 247.5,253.5C 246.833,253.5 246.5,253.833 246.5,254.5C 234.833,255.833 223.167,255.833 211.5,254.5C 211.5,253.833 211.167,253.5 210.5,253.5C 212.997,247.835 215.997,242.502 219.5,237.5C 219.162,239.854 218.662,242.187 218,244.5C 217.667,244.167 217.333,243.833 217,243.5C 216.302,246.004 215.469,248.337 214.5,250.5C 218.951,251.827 223.784,252.494 229,252.5C 234.246,252.476 239.412,252.143 244.5,251.5C 242.953,248.19 240.953,244.524 238.5,240.5C 237.062,239.718 236.062,238.051 235.5,235.5C 235.5,234.5 235.5,233.5 235.5,232.5 Z"/></g>
<g><path style="opacity:0.004" fill="#000000" d="M 258.5,250.5 C 259.833,251.167 259.833,251.167 258.5,250.5 Z"/></g>
<g><path style="opacity:0.149" fill="#2d2c2d" d="M 258.5,251.5 C 258.393,253.379 258.893,253.712 260,252.5C 260.662,254.813 261.162,257.146 261.5,259.5C 259,256.506 257,253.173 255.5,249.5C 256.222,249.082 256.722,248.416 257,247.5C 257.21,249.058 257.71,250.391 258.5,251.5 Z"/></g>
<g><path style="opacity:0.277" fill="#303030" d="M 397.5,252.5 C 408.167,252.5 418.833,252.5 429.5,252.5C 429.844,257.122 429.177,261.455 427.5,265.5C 427.5,261.833 427.5,258.167 427.5,254.5C 417.111,255.141 407.111,254.474 397.5,252.5 Z"/></g>
<g><path style="opacity:0.015" fill="#313031" d="M 337.5,222.5 C 322.493,223.647 307.493,223.814 292.5,223C 293.5,223.333 294.5,223.667 295.5,224C 293.866,224.494 292.199,224.66 290.5,224.5C 290.587,227.598 290.087,227.932 289,225.5C 288.833,226.167 288.667,226.833 288.5,227.5C 289.232,230.47 289.399,233.47 289,236.5C 290.073,235.72 291.24,235.887 292.5,237C 291.833,237.333 291.167,237.667 290.5,238C 291.793,238.49 293.127,238.657 294.5,238.5C 308.661,239.331 322.994,239.831 337.5,240C 335.5,240.333 333.5,240.667 331.5,241C 334.146,241.497 336.813,241.664 339.5,241.5C 340.952,242.302 342.618,242.802 344.5,243C 344.167,243.333 343.833,243.667 343.5,244C 346.773,244.94 348.606,247.107 349,250.5C 349.333,249.833 349.667,249.167 350,248.5C 350.667,255.5 350.667,262.5 350,269.5C 349.667,268.833 349.333,268.167 349,267.5C 347.418,272.747 343.918,275.914 338.5,277C 339.167,277.333 339.833,277.667 340.5,278C 337.635,278.183 334.969,278.683 332.5,279.5C 317.789,279.402 303.122,279.568 288.5,280C 289.5,279.667 290.5,279.333 291.5,279C 289.167,278.667 286.833,278.333 284.5,278C 285.416,277.722 286.082,277.222 286.5,276.5C 301.073,278.538 315.74,279.038 330.5,278C 336.556,277.211 341.723,274.711 346,270.5C 353.295,253.3 347.795,243.8 329.5,242C 318.167,241.667 306.833,241.333 295.5,241C 291.562,240.786 288.728,238.953 287,235.5C 284.78,228.563 286.947,223.73 293.5,221C 306.118,219.436 318.785,219.103 331.5,220C 333.723,220.566 335.723,221.4 337.5,222.5 Z"/></g>
<g><path style="opacity:0.004" fill="#000000" d="M 351.5,253.5 C 352.643,256.976 352.81,260.642 352,264.5C 351.501,260.848 351.335,257.182 351.5,253.5 Z"/></g>
<g><path style="opacity:0.004" fill="#000000" d="M 120.5,254.5 C 121.525,254.897 121.692,255.563 121,256.5C 120.536,255.906 120.369,255.239 120.5,254.5 Z"/></g>
<g><path style="opacity:0.073" fill="#2d2d2d" d="M 202.5,249.5 C 201.502,253.505 199.502,256.839 196.5,259.5C 196.838,257.146 197.338,254.813 198,252.5C 199.107,253.712 199.607,253.379 199.5,251.5C 200.29,250.391 200.79,249.058 201,247.5C 201.278,248.416 201.778,249.082 202.5,249.5 Z"/></g>
<g><path style="opacity:0.498" fill="#929293" d="M 210.5,253.5 C 211.167,253.5 211.5,253.833 211.5,254.5C 223.167,255.833 234.833,255.833 246.5,254.5C 247.167,254.5 247.5,254.167 247.5,253.5C 248.478,253.811 249.145,254.478 249.5,255.5C 235.833,256.833 222.167,256.833 208.5,255.5C 208.855,254.478 209.522,253.811 210.5,253.5 Z"/></g>
<g><path style="opacity:0.051" fill="#1c1c1c" d="M 43.5,254.5 C 45.0652,256.509 46.0652,258.843 46.5,261.5C 45.8826,261.611 45.3826,261.944 45,262.5C 44.79,260.942 44.29,259.609 43.5,258.5C 43.5,257.167 43.5,255.833 43.5,254.5 Z"/></g>
<g><path style="opacity:0.005" fill="#f4f4f4" d="M 100.5,253.5 C 102.412,257.194 102.912,261.194 102,265.5C 101.499,261.49 100.999,257.49 100.5,253.5 Z"/></g>
<g><path style="opacity:0.004" fill="#000000" d="M 278.5,258.5 C 280.628,257.371 282.961,257.204 285.5,258C 283.19,258.497 280.857,258.663 278.5,258.5 Z"/></g>
<g><path style="opacity:0.004" fill="#595959" d="M 356.5,227.5 C 357.66,239.326 357.826,251.326 357,263.5C 356.5,251.505 356.333,239.505 356.5,227.5 Z"/></g>
<g><path style="opacity:0.004" fill="#000000" d="M 43.5,258.5 C 42.8333,259.167 42.8333,259.167 43.5,258.5 Z"/></g>
<g><path style="opacity:0.078" fill="#2c2c2d" d="M 117.5,258.5 C 117.5,259.5 117.5,260.5 117.5,261.5C 116.71,262.609 116.21,263.942 116,265.5C 115.667,265.167 115.333,264.833 115,264.5C 114.333,265.833 113.667,267.167 113,268.5C 112.617,267.944 112.117,267.611 111.5,267.5C 113.255,264.32 115.255,261.32 117.5,258.5 Z"/></g>
<g><path style="opacity:0.004" fill="#000000" d="M 264.5,260.5 C 265.833,261.167 265.833,261.167 264.5,260.5 Z"/></g>
<g><path style="opacity:0.004" fill="#000000" d="M 275.5,260.5 C 276.629,262.628 276.796,264.961 276,267.5C 275.503,265.19 275.337,262.857 275.5,260.5 Z"/></g>
<g><path style="opacity:0.096" fill="#2f2f2f" d="M 46.5,261.5 C 48.2624,262.262 49.2624,263.596 49.5,265.5C 48.8826,265.611 48.3826,265.944 48,266.5C 46.9914,264.975 46.4914,263.308 46.5,261.5 Z"/></g>
<g><path style="opacity:0.004" fill="#000000" d="M 117.5,261.5 C 118.833,262.167 118.833,262.167 117.5,261.5 Z"/></g>
<g><path style="opacity:0.004" fill="#000000" d="M 288.5,263.5 C 288.369,262.761 288.536,262.094 289,261.5C 289.692,262.437 289.525,263.103 288.5,263.5 Z"/></g>
<g><path style="opacity:0.004" fill="#000000" d="M 337.5,264.5 C 336.475,264.103 336.308,263.437 337,262.5C 337.464,263.094 337.631,263.761 337.5,264.5 Z"/></g>
<g><path style="opacity:0.098" fill="#262626" d="M 259.5,274.5 C 258.778,274.918 258.278,275.584 258,276.5C 255.89,274.184 254.557,270.85 254,266.5C 253.667,266.833 253.333,267.167 253,267.5C 252.722,266.584 252.222,265.918 251.5,265.5C 244.174,264.834 236.674,264.5 229,264.5C 221.098,264.518 213.432,265.184 206,266.5C 205.667,265.833 205.333,265.167 205,264.5C 204.346,268.818 203.18,271.485 201.5,272.5C 200.71,273.609 200.21,274.942 200,276.5C 199.722,275.584 199.222,274.918 198.5,274.5C 199.837,270.327 201.837,266.494 204.5,263C 220.833,262.333 237.167,262.333 253.5,263C 256.163,266.494 258.163,270.327 259.5,274.5 Z"/></g>
<g><path style="opacity:0.144" fill="#222223" d="M 288.5,263.5 C 288.5,264.833 288.5,266.167 288.5,267.5C 286.72,266.01 286.054,264.01 286.5,261.5C 283.833,261.5 281.167,261.5 278.5,261.5C 278.211,264.649 278.711,267.649 280,270.5C 282.063,272.734 284.229,274.734 286.5,276.5C 285.07,276.579 283.736,276.246 282.5,275.5C 280.493,273.694 278.826,271.694 277.5,269.5C 277.5,266.167 277.5,262.833 277.5,259.5C 280.518,259.335 283.518,259.502 286.5,260C 287.085,261.302 287.751,262.469 288.5,263.5 Z"/></g>
<g><path style="opacity:0.104" fill="#222223" d="M 49.5,265.5 C 50.8333,266.167 51.8333,267.167 52.5,268.5C 50.5627,269.195 49.5627,268.195 49.5,265.5 Z"/></g>
<g><path style="opacity:0.004" fill="#000000" d="M 251.5,265.5 C 237.006,266.661 222.339,266.828 207.5,266C 222.163,265.5 236.83,265.333 251.5,265.5 Z"/></g>
<g><path style="opacity:0.004" fill="#000000" d="M 358.5,265.5 C 358.631,266.239 358.464,266.906 358,267.5C 357.308,266.563 357.475,265.897 358.5,265.5 Z"/></g>
<g><path style="opacity:0.034" fill="#1c1c1d" d="M 397.5,245.5 C 410.99,244.504 424.656,244.171 438.5,244.5C 438.5,251.833 438.5,259.167 438.5,266.5C 437.698,267.952 437.198,269.618 437,271.5C 436.667,271.167 436.333,270.833 436,270.5C 435.722,271.416 435.222,272.082 434.5,272.5C 433.957,272.44 433.624,272.107 433.5,271.5C 435.194,269.446 436.361,267.112 437,264.5C 437.5,258.175 437.666,251.842 437.5,245.5C 424.167,245.5 410.833,245.5 397.5,245.5 Z"/></g>
<g><path style="opacity:0.004" fill="#000000" d="M 190.5,267.5 C 189.833,266.167 189.833,266.167 190.5,267.5 Z"/></g>
<g><path style="opacity:0.004" fill="#000000" d="M 267.5,266.5 C 268.833,267.167 268.833,267.167 267.5,266.5 Z"/></g>
<g><path style="opacity:0.004" fill="#000000" d="M 438.5,266.5 C 439.525,266.897 439.692,267.563 439,268.5C 438.536,267.906 438.369,267.239 438.5,266.5 Z"/></g>
<g><path style="opacity:0.302" fill="#252523" d="M 196.5,259.5 C 195.258,263.655 193.258,267.322 190.5,270.5C 190.5,269.5 190.5,268.5 190.5,267.5C 191.29,266.391 191.79,265.058 192,263.5C 192.654,264.696 193.154,264.696 193.5,263.5C 193.167,262.833 192.833,262.167 192.5,261.5C 192.846,260.304 193.346,260.304 194,261.5C 194.333,260.167 194.667,258.833 195,257.5C 195.278,258.416 195.778,259.082 196.5,259.5 Z"/></g>
<g><path style="opacity:0.028" fill="#3a3a3b" d="M 361.5,221.5 C 361.108,223.179 360.608,224.846 360,226.5C 359.333,239.167 359.333,251.833 360,264.5C 361.892,269.553 365.058,273.553 369.5,276.5C 368.178,276.33 367.011,276.663 366,277.5C 363.61,275.733 361.943,273.4 361,270.5C 360.667,270.833 360.333,271.167 360,271.5C 359.809,269.292 359.309,267.292 358.5,265.5C 358.5,252.167 358.5,238.833 358.5,225.5C 359.309,223.708 359.809,221.708 360,219.5C 360.278,220.416 360.778,221.082 361.5,221.5 Z"/></g>
<g><path style="opacity:0.004" fill="#000000" d="M 277.5,269.5 C 276.833,270.167 276.833,270.167 277.5,269.5 Z"/></g>
<g><path style="opacity:0.012" fill="#383838" d="M 52.5,268.5 C 55.0127,271.255 58.0127,273.255 61.5,274.5C 59.9652,275.788 58.2985,275.788 56.5,274.5C 54.3637,273.031 53.0303,271.031 52.5,268.5 Z"/></g>
<g><path style="opacity:0.341" fill="#2b2a2c" d="M 279.5,219.5 C 280.167,219.5 280.5,219.833 280.5,220.5C 273.853,237.382 279.52,246.549 297.5,248C 308.833,248.333 320.167,248.667 331.5,249C 340.138,250.719 342.971,255.886 340,264.5C 338.52,267.663 336.02,269.496 332.5,270C 319.538,271.52 306.538,271.853 293.5,271C 291.027,270.78 289.36,269.614 288.5,267.5C 289.222,267.082 289.722,266.416 290,265.5C 290.249,266.624 290.749,267.624 291.5,268.5C 305.842,267.368 320.176,267.202 334.5,268C 333.833,267.667 333.167,267.333 332.5,267C 333.766,266.691 334.933,266.191 336,265.5C 337.107,266.712 337.607,266.379 337.5,264.5C 338.641,261.36 338.808,258.027 338,254.5C 337.667,255.167 337.333,255.833 337,256.5C 336.682,254.939 335.849,253.772 334.5,253C 334.833,252.667 335.167,252.333 335.5,252C 322.5,251.667 309.5,251.333 296.5,251C 307.833,250.667 319.167,250.333 330.5,250C 318.171,249.5 305.838,249.333 293.5,249.5C 291.031,248.683 288.365,248.183 285.5,248C 286.167,247.667 286.833,247.333 287.5,247C 283.056,245.889 279.389,243.556 276.5,240C 277.475,234.259 277.808,228.425 277.5,222.5C 278.167,221.5 278.833,220.5 279.5,219.5 Z"/></g>
<g><path style="opacity:0.296" fill="#252526" d="M 369.5,225.5 C 369.5,227.833 369.5,230.167 369.5,232.5C 368.167,241.167 368.167,249.833 369.5,258.5C 369.337,260.857 369.503,263.19 370,265.5C 370.333,264.167 370.667,262.833 371,261.5C 371.121,263.727 371.954,265.56 373.5,267C 373.167,267.333 372.833,267.667 372.5,268C 373.448,268.483 374.448,268.649 375.5,268.5C 390.833,269.833 406.167,269.833 421.5,268.5C 422.552,268.649 423.552,268.483 424.5,268C 424.167,267.667 423.833,267.333 423.5,267C 425.046,265.56 425.879,263.727 426,261.5C 426.21,263.058 426.71,264.391 427.5,265.5C 427.489,267.017 426.823,268.184 425.5,269C 422.956,270.092 420.289,270.759 417.5,271C 402.445,271.934 387.445,271.6 372.5,270C 370.346,268.68 368.846,266.847 368,264.5C 367.333,251.833 367.333,239.167 368,226.5C 368.383,225.944 368.883,225.611 369.5,225.5 Z"/></g>
<g><path style="opacity:0.004" fill="#000000" d="M 421.5,268.5 C 418.482,268.665 415.482,268.498 412.5,268C 415.696,267.195 418.696,267.362 421.5,268.5 Z"/></g>
<g><path style="opacity:0.004" fill="#000000" d="M 375.5,268.5 C 382.655,267.345 389.988,267.178 397.5,268C 390.174,268.5 382.841,268.666 375.5,268.5 Z"/></g>
<g><path style="opacity:0.061" fill="#1d1d1d" d="M 264.5,261.5 C 265.772,262.732 266.772,264.732 267.5,267.5C 268.724,269.627 270.224,271.627 272,273.5C 272.667,274.833 272.667,276.167 272,277.5C 267.934,278.464 263.767,278.797 259.5,278.5C 259.5,277.167 259.5,275.833 259.5,274.5C 260.267,275.172 260.934,276.005 261.5,277C 264.554,277.821 267.554,277.655 270.5,276.5C 267.22,270.938 264.22,265.271 261.5,259.5C 262.222,259.082 262.722,258.416 263,257.5C 263.21,259.058 263.71,260.391 264.5,261.5 Z"/></g>
<g><path style="opacity:0.071" fill="#3a3a3a" d="M 64.5,271.5 C 67.5693,274.577 70.9026,277.244 74.5,279.5C 73.1667,279.5 71.8333,279.5 70.5,279.5C 69.1658,277.841 67.4992,276.508 65.5,275.5C 64.5713,274.311 64.238,272.978 64.5,271.5 Z"/></g>
<g><path style="opacity:0.067" fill="#2e2e2e" d="M 99.5,267.5 C 99.2053,269.735 99.5386,271.735 100.5,273.5C 100.369,274.239 100.536,274.906 101,275.5C 104.62,272.946 108.12,270.279 111.5,267.5C 111.649,268.552 111.483,269.552 111,270.5C 107.943,272.734 104.776,274.734 101.5,276.5C 100.328,276.081 99.3279,275.415 98.5,274.5C 97.0878,275.806 95.4211,276.64 93.5,277C 93.8333,277.333 94.1667,277.667 94.5,278C 92.26,278.977 89.9267,279.477 87.5,279.5C 90.0205,277.981 92.5205,276.314 95,274.5C 96.5242,272.102 98.0242,269.769 99.5,267.5 Z"/></g>
<g><path style="opacity:0.004" fill="#000000" d="M 201.5,272.5 C 202.833,273.167 202.833,273.167 201.5,272.5 Z"/></g>
<g><path style="opacity:0.098" fill="#272727" d="M 432.5,273.5 C 433.167,273.5 433.5,273.833 433.5,274.5C 432.5,275.167 431.5,275.833 430.5,276.5C 429.5,276.5 428.5,276.5 427.5,276.5C 428.659,274.75 430.326,273.75 432.5,273.5 Z"/></g>
<g><path style="opacity:0.004" fill="#000000" d="M 59.5,276.5 C 60.8333,277.167 60.8333,277.167 59.5,276.5 Z"/></g>
<g><path style="opacity:0.09" fill="#3f3f40" d="M 190.5,270.5 C 189.242,272.687 188.242,275.02 187.5,277.5C 185.656,276.796 185.156,275.463 186,273.5C 186.333,273.833 186.667,274.167 187,274.5C 187.667,272.5 188.333,270.5 189,268.5C 189.278,269.416 189.778,270.082 190.5,270.5 Z"/></g>
<g><path style="opacity:0.004" fill="#000000" d="M 430.5,276.5 C 431.833,277.167 431.833,277.167 430.5,276.5 Z"/></g>
<g><path style="opacity:0.02" fill="#0c0c0c" d="M 198.5,274.5 C 198.5,275.833 198.5,277.167 198.5,278.5C 194.629,278.815 190.962,278.482 187.5,277.5C 191.75,278.081 195.416,277.081 198.5,274.5 Z"/></g>
<g><path style="opacity:0.167" fill="#171717" d="M 369.5,276.5 C 388.839,279.132 408.173,279.132 427.5,276.5C 428.209,277.404 429.209,277.737 430.5,277.5C 427.5,278.167 424.5,278.833 421.5,279.5C 405.11,279.379 388.776,279.545 372.5,280C 373.167,279.667 373.833,279.333 374.5,279C 372.167,278.667 369.833,278.333 367.5,278C 368.416,277.722 369.082,277.222 369.5,276.5 Z"/></g>
<g><path style="opacity:0.004" fill="#000000" d="M 70.5,279.5 C 69.8333,280.167 69.8333,280.167 70.5,279.5 Z"/></g>
<g><path style="opacity:0.004" fill="#000000" d="M 188.5,280.5 C 190.966,279.366 193.633,279.199 196.5,280C 193.854,280.497 191.187,280.664 188.5,280.5 Z"/></g>
<g><path style="opacity:0.004" fill="#000000" d="M 261.5,280.5 C 264.304,279.362 267.304,279.195 270.5,280C 267.518,280.498 264.518,280.665 261.5,280.5 Z"/></g>
<g><path style="opacity:0.004" fill="#000000" d="M 332.5,279.5 C 333.552,279.351 334.552,279.517 335.5,280C 334.251,280.74 333.251,280.573 332.5,279.5 Z"/></g>
<g><path style="opacity:0.004" fill="#000000" d="M 421.5,279.5 C 422.552,279.351 423.552,279.517 424.5,280C 423.251,280.74 422.251,280.573 421.5,279.5 Z"/></g>
<g><path style="opacity:0.015" fill="#1e1e1f" d="M 74.5,279.5 C 78.8333,280.833 83.1667,280.833 87.5,279.5C 88.2625,280.268 89.2625,280.768 90.5,281C 84.5,281.667 78.5,281.667 72.5,281C 73.4158,280.722 74.0825,280.222 74.5,279.5 Z"/></g>
<g><path style="opacity:0.004" fill="#000000" d="M 294.5,281.5 C 306.326,280.34 318.326,280.174 330.5,281C 318.505,281.5 306.505,281.667 294.5,281.5 Z"/></g>
<g><path style="opacity:0.004" fill="#000000" d="M 377.5,281.5 C 390.994,280.339 404.66,280.173 418.5,281C 404.837,281.5 391.171,281.667 377.5,281.5 Z"/></g>
<g><path style="opacity:0.004" fill="#000000" d="M 77.5,283.5 C 79.6282,282.371 81.9615,282.204 84.5,283C 82.1902,283.497 79.8568,283.663 77.5,283.5 Z"/></g>
<g><path style="opacity:0.004" fill="#000000" d="M -0.5,462.5 C 0.940163,463.946 1.60683,465.779 1.5,468C 1.69316,470.008 1.0265,471.508 -0.5,472.5C -0.5,469.167 -0.5,465.833 -0.5,462.5 Z"/></g>
</svg>
