<?xml version="1.0" encoding="UTF-8"?>
<!DOCTYPE svg PUBLIC "-//W3C//DTD SVG 1.1//EN" "http://www.w3.org/Graphics/SVG/1.1/DTD/svg11.dtd">
<svg xmlns="http://www.w3.org/2000/svg" version="1.1" width="631px" height="245px" style="shape-rendering:geometricPrecision; text-rendering:geometricPrecision; image-rendering:optimizeQuality; fill-rule:evenodd; clip-rule:evenodd" xmlns:xlink="http://www.w3.org/1999/xlink">
<g><path style="opacity:1" fill="#1b1c1e" d="M -0.5,-0.5 C 209.833,-0.5 420.167,-0.5 630.5,-0.5C 630.5,81.1667 630.5,162.833 630.5,244.5C 420.167,244.5 209.833,244.5 -0.5,244.5C -0.5,162.833 -0.5,81.1667 -0.5,-0.5 Z"/></g>
<g><path style="opacity:1" fill="#e0e0e2" d="M 207.5,47.5 C 208.833,69.9901 209.5,92.8234 209.5,116C 209.167,138.833 208.833,161.667 208.5,184.5C 207.5,138.838 207.167,93.1715 207.5,47.5 Z"/></g>
<g><path style="opacity:1" fill="#fcfdfd" d="M 112.5,111.5 C 112.315,113.89 110.982,114.89 108.5,114.5C 106.645,114.66 105.312,113.993 104.5,112.5C 104.5,95.5 104.5,78.5 104.5,61.5C 107.167,61.5 109.833,61.5 112.5,61.5C 112.5,78.1667 112.5,94.8333 112.5,111.5 Z"/></g>
<g><path style="opacity:1" fill="#f4f4f4" d="M 75.5,71.5 C 77.0744,71.9371 78.2411,72.9371 79,74.5C 86.4362,87.0417 93.6028,99.7084 100.5,112.5C 97.9003,117.268 94.7337,117.601 91,113.5C 83.8333,101.167 76.6667,88.8333 69.5,76.5C 71.1619,74.3483 73.1619,72.6817 75.5,71.5 Z"/></g>
<g><path style="opacity:1" fill="#f4f4f4" d="M 139.5,71.5 C 142.686,72.3563 145.353,74.023 147.5,76.5C 139.626,89.7499 131.626,102.917 123.5,116C 118,117.167 115.833,115 117,109.5C 124.775,96.943 132.275,84.2763 139.5,71.5 Z"/></g>
<g><path style="opacity:1" fill="#939394" d="M 112.5,111.5 C 112.5,94.8333 112.5,78.1667 112.5,61.5C 109.833,61.5 107.167,61.5 104.5,61.5C 104.5,78.5 104.5,95.5 104.5,112.5C 103.503,95.3414 103.17,78.008 103.5,60.5C 106.833,60.5 110.167,60.5 113.5,60.5C 113.83,77.6749 113.497,94.6749 112.5,111.5 Z"/></g>
<g><path style="opacity:1" fill="#f4f4f4" d="M 464.5,96.5 C 464.5,98.5 464.5,100.5 464.5,102.5C 461.167,102.5 457.833,102.5 454.5,102.5C 455.065,95.2307 451.732,91.064 444.5,90C 426.789,89.0704 409.122,89.4037 391.5,91C 384.374,92.7519 381.374,97.2519 382.5,104.5C 381.658,110.839 384.325,115.005 390.5,117C 406.78,118.273 423.114,118.94 439.5,119C 462.686,120.521 470.52,132.354 463,154.5C 459.206,159.95 454.039,163.45 447.5,165C 427.872,167.849 408.205,168.182 388.5,166C 376.7,163.699 371.034,156.532 371.5,144.5C 375.167,144.5 378.833,144.5 382.5,144.5C 381.436,150.204 383.436,154.371 388.5,157C 403.787,158.584 419.121,158.918 434.5,158C 451.488,157.705 457.655,149.538 453,133.5C 451.048,131.106 448.548,129.606 445.5,129C 430.873,127.773 416.206,127.106 401.5,127C 392.928,126.939 384.928,124.939 377.5,121C 372.838,116.547 370.838,111.047 371.5,104.5C 371.444,91.7155 377.777,84.2155 390.5,82C 407.471,80.4769 424.471,80.1436 441.5,81C 449.449,81.3116 456.282,84.145 462,89.5C 463.411,91.6504 464.245,93.9837 464.5,96.5 Z"/></g>
<g><path style="opacity:1" fill="#f6f6f6" d="M 582.5,100.5 C 582.5,102.833 582.5,105.167 582.5,107.5C 579.5,107.5 576.5,107.5 573.5,107.5C 573.795,105.265 573.461,103.265 572.5,101.5C 571.767,94.9325 568.1,91.0991 561.5,90C 541.167,89.3333 520.833,89.3333 500.5,90C 495.765,91.0681 492.598,93.9014 491,98.5C 489.88,106.594 489.38,114.76 489.5,123C 489.667,130.167 489.833,137.333 490,144.5C 490.948,151.448 494.781,155.948 501.5,158C 522.2,158.915 542.867,158.581 563.5,157C 567.667,155.5 570.5,152.667 572,148.5C 572.499,143.177 572.666,137.844 572.5,132.5C 558.833,132.5 545.167,132.5 531.5,132.5C 531.5,129.833 531.5,127.167 531.5,124.5C 548.5,124.5 565.5,124.5 582.5,124.5C 582.5,131.833 582.5,139.167 582.5,146.5C 580.884,158.611 573.884,165.111 561.5,166C 540.836,167.985 520.169,167.985 499.5,166C 486.926,163.759 480.426,156.259 480,143.5C 479.081,127.787 479.414,112.121 481,96.5C 483.998,88.8362 489.498,84.0029 497.5,82C 518.129,80.4055 538.796,80.0721 559.5,81C 569.807,81.7227 577.307,86.5561 582,95.5C 582.494,97.1341 582.66,98.8008 582.5,100.5 Z"/></g>
<g><path style="opacity:1" fill="#f5f5f5" d="M 297.5,82.5 C 302.875,82.1718 308.208,82.5052 313.5,83.5C 328.914,110.664 344.581,137.664 360.5,164.5C 356.541,165.66 352.541,165.827 348.5,165C 345.42,158.839 342.087,152.839 338.5,147C 316.5,146.333 294.5,146.333 272.5,147C 269.04,152.752 265.707,158.585 262.5,164.5C 258.5,165.833 254.5,165.833 250.5,164.5C 266.222,137.132 281.889,109.799 297.5,82.5 Z"/></g>
<g><path style="opacity:1" fill="#f1f1f1" d="M 58.5,96.5 C 59.552,96.3505 60.552,96.5172 61.5,97C 70.5,103.5 79.5,110 88.5,116.5C 89.7472,123.391 87.0805,125.225 80.5,122C 72.1285,115.822 63.7952,109.655 55.5,103.5C 56.7878,101.261 57.7878,98.9279 58.5,96.5 Z"/></g>
<g><path style="opacity:1" fill="#f3f3f3" d="M 155.5,96.5 C 158.301,98.2192 160.301,100.719 161.5,104C 152.5,110.333 143.5,116.667 134.5,123C 128.514,124.016 126.514,121.683 128.5,116C 137.681,109.637 146.681,103.137 155.5,96.5 Z"/></g>
<g><path style="opacity:1" fill="#1c1c1e" d="M 304.5,89.5 C 314.536,104.544 323.87,120.211 332.5,136.5C 314.5,137.833 296.5,137.833 278.5,136.5C 287.445,120.94 296.111,105.273 304.5,89.5 Z"/></g>
<g><path style="opacity:1" fill="#7d7e80" d="M 464.5,96.5 C 465.468,98.6074 465.802,100.941 465.5,103.5C 461.629,103.815 457.962,103.482 454.5,102.5C 457.833,102.5 461.167,102.5 464.5,102.5C 464.5,100.5 464.5,98.5 464.5,96.5 Z"/></g>
<g><path style="opacity:1" fill="#a6a6a7" d="M 582.5,100.5 C 583.473,102.948 583.806,105.615 583.5,108.5C 579.833,108.5 576.167,108.5 572.5,108.5C 572.5,106.167 572.5,103.833 572.5,101.5C 573.461,103.265 573.795,105.265 573.5,107.5C 576.5,107.5 579.5,107.5 582.5,107.5C 582.5,105.167 582.5,102.833 582.5,100.5 Z"/></g>
<g><path style="opacity:1" fill="#fbfbfb" d="M 103.5,120.5 C 125.19,120.355 134.69,131.022 132,152.5C 126.279,165.948 116.112,171.448 101.5,169C 83.8008,160.772 79.3008,147.939 88,130.5C 92.2053,125.492 97.3719,122.159 103.5,120.5 Z"/></g>
<g><path style="opacity:1" fill="#b7b7b7" d="M 582.5,146.5 C 582.5,139.167 582.5,131.833 582.5,124.5C 565.5,124.5 548.5,124.5 531.5,124.5C 531.5,127.167 531.5,129.833 531.5,132.5C 530.523,129.713 530.19,126.713 530.5,123.5C 548.167,123.5 565.833,123.5 583.5,123.5C 583.825,131.352 583.492,139.018 582.5,146.5 Z"/></g>
<g><path style="opacity:1" fill="#f6f6f6" d="M 57.5,128.5 C 65.5069,128.334 73.5069,128.5 81.5,129C 76.2488,139.613 76.2488,150.28 81.5,161C 78.9023,160.874 76.569,159.874 74.5,158C 65.5836,149.996 59.9169,140.163 57.5,128.5 Z"/></g>
<g><path style="opacity:1" fill="#f8f8f8" d="M 135.5,128.5 C 143.5,128.5 151.5,128.5 159.5,128.5C 156.586,143.415 148.586,154.749 135.5,162.5C 135.167,162.333 134.833,162.167 134.5,162C 140.669,150.986 141.002,139.819 135.5,128.5 Z"/></g>
</svg>
